<mxfile host="app.diagrams.net" modified="2024-01-04T03:32:24.371Z" agent="Mozilla/5.0 (Windows NT 10.0; Win64; x64) AppleWebKit/537.36 (KHTML, like Gecko) Chrome/120.0.0.0 Safari/537.36 Edg/120.0.0.0" etag="b_jmK2k6tCcSGf4U4umn" version="22.1.16" type="github">
  <diagram id="C5RBs43oDa-KdzZeNtuy" name="Page-1">
    <mxGraphModel dx="1626" dy="759" grid="1" gridSize="10" guides="1" tooltips="1" connect="1" arrows="1" fold="1" page="1" pageScale="1" pageWidth="827" pageHeight="1169" math="0" shadow="0">
      <root>
        <mxCell id="WIyWlLk6GJQsqaUBKTNV-0" />
        <mxCell id="WIyWlLk6GJQsqaUBKTNV-1" parent="WIyWlLk6GJQsqaUBKTNV-0" />
        <mxCell id="7zYd6-ZZeoP9DbDOQC2W-7" style="edgeStyle=orthogonalEdgeStyle;rounded=0;orthogonalLoop=1;jettySize=auto;html=1;exitX=1;exitY=0.5;exitDx=0;exitDy=0;entryX=0;entryY=0.5;entryDx=0;entryDy=0;" edge="1" parent="WIyWlLk6GJQsqaUBKTNV-1" source="WIyWlLk6GJQsqaUBKTNV-3" target="7zYd6-ZZeoP9DbDOQC2W-0">
          <mxGeometry relative="1" as="geometry" />
        </mxCell>
        <mxCell id="WIyWlLk6GJQsqaUBKTNV-3" value="YUV" style="rounded=1;whiteSpace=wrap;html=1;fontSize=12;glass=0;strokeWidth=1;shadow=0;" parent="WIyWlLk6GJQsqaUBKTNV-1" vertex="1">
          <mxGeometry x="150" y="80" width="80" height="40" as="geometry" />
        </mxCell>
        <mxCell id="7zYd6-ZZeoP9DbDOQC2W-6" style="edgeStyle=orthogonalEdgeStyle;rounded=0;orthogonalLoop=1;jettySize=auto;html=1;exitX=1;exitY=0.5;exitDx=0;exitDy=0;" edge="1" parent="WIyWlLk6GJQsqaUBKTNV-1" source="7zYd6-ZZeoP9DbDOQC2W-0" target="7zYd6-ZZeoP9DbDOQC2W-2">
          <mxGeometry relative="1" as="geometry" />
        </mxCell>
        <mxCell id="7zYd6-ZZeoP9DbDOQC2W-0" value="编码H264/H265" style="rounded=1;whiteSpace=wrap;html=1;fontSize=12;glass=0;strokeWidth=1;shadow=0;" vertex="1" parent="WIyWlLk6GJQsqaUBKTNV-1">
          <mxGeometry x="320" y="80" width="120" height="40" as="geometry" />
        </mxCell>
        <mxCell id="7zYd6-ZZeoP9DbDOQC2W-29" style="edgeStyle=orthogonalEdgeStyle;rounded=0;orthogonalLoop=1;jettySize=auto;html=1;exitX=1;exitY=0.5;exitDx=0;exitDy=0;entryX=0;entryY=0.5;entryDx=0;entryDy=0;" edge="1" parent="WIyWlLk6GJQsqaUBKTNV-1" source="7zYd6-ZZeoP9DbDOQC2W-2" target="7zYd6-ZZeoP9DbDOQC2W-8">
          <mxGeometry relative="1" as="geometry" />
        </mxCell>
        <mxCell id="7zYd6-ZZeoP9DbDOQC2W-2" value="MP4" style="rounded=1;whiteSpace=wrap;html=1;fontSize=12;glass=0;strokeWidth=1;shadow=0;" vertex="1" parent="WIyWlLk6GJQsqaUBKTNV-1">
          <mxGeometry x="510" y="80" width="90" height="40" as="geometry" />
        </mxCell>
        <mxCell id="7zYd6-ZZeoP9DbDOQC2W-30" style="edgeStyle=orthogonalEdgeStyle;rounded=0;orthogonalLoop=1;jettySize=auto;html=1;exitX=0.5;exitY=1;exitDx=0;exitDy=0;entryX=0.5;entryY=0;entryDx=0;entryDy=0;" edge="1" parent="WIyWlLk6GJQsqaUBKTNV-1" source="7zYd6-ZZeoP9DbDOQC2W-8" target="7zYd6-ZZeoP9DbDOQC2W-17">
          <mxGeometry relative="1" as="geometry" />
        </mxCell>
        <mxCell id="7zYd6-ZZeoP9DbDOQC2W-8" value="解码H264/265" style="rounded=1;whiteSpace=wrap;html=1;fontSize=12;glass=0;strokeWidth=1;shadow=0;" vertex="1" parent="WIyWlLk6GJQsqaUBKTNV-1">
          <mxGeometry x="680" y="80" width="95" height="40" as="geometry" />
        </mxCell>
        <mxCell id="7zYd6-ZZeoP9DbDOQC2W-15" value="解封装" style="text;strokeColor=none;align=center;fillColor=none;html=1;verticalAlign=middle;whiteSpace=wrap;rounded=0;" vertex="1" parent="WIyWlLk6GJQsqaUBKTNV-1">
          <mxGeometry x="610" y="70" width="60" height="30" as="geometry" />
        </mxCell>
        <mxCell id="7zYd6-ZZeoP9DbDOQC2W-16" value="封装" style="text;strokeColor=none;align=center;fillColor=none;html=1;verticalAlign=middle;whiteSpace=wrap;rounded=0;" vertex="1" parent="WIyWlLk6GJQsqaUBKTNV-1">
          <mxGeometry x="440" y="70" width="60" height="30" as="geometry" />
        </mxCell>
        <mxCell id="7zYd6-ZZeoP9DbDOQC2W-22" style="edgeStyle=orthogonalEdgeStyle;rounded=0;orthogonalLoop=1;jettySize=auto;html=1;exitX=0;exitY=0.5;exitDx=0;exitDy=0;entryX=1;entryY=0.5;entryDx=0;entryDy=0;" edge="1" parent="WIyWlLk6GJQsqaUBKTNV-1" source="7zYd6-ZZeoP9DbDOQC2W-17" target="7zYd6-ZZeoP9DbDOQC2W-21">
          <mxGeometry relative="1" as="geometry" />
        </mxCell>
        <mxCell id="7zYd6-ZZeoP9DbDOQC2W-17" value="YUV" style="rounded=1;whiteSpace=wrap;html=1;fontSize=12;glass=0;strokeWidth=1;shadow=0;" vertex="1" parent="WIyWlLk6GJQsqaUBKTNV-1">
          <mxGeometry x="677.5" y="220" width="100" height="40" as="geometry" />
        </mxCell>
        <mxCell id="7zYd6-ZZeoP9DbDOQC2W-19" value="编码器" style="text;strokeColor=none;align=center;fillColor=none;html=1;verticalAlign=middle;whiteSpace=wrap;rounded=0;" vertex="1" parent="WIyWlLk6GJQsqaUBKTNV-1">
          <mxGeometry x="250" y="70" width="60" height="30" as="geometry" />
        </mxCell>
        <mxCell id="7zYd6-ZZeoP9DbDOQC2W-20" value="解码器" style="text;strokeColor=none;align=center;fillColor=none;html=1;verticalAlign=middle;whiteSpace=wrap;rounded=0;" vertex="1" parent="WIyWlLk6GJQsqaUBKTNV-1">
          <mxGeometry x="730" y="160" width="60" height="30" as="geometry" />
        </mxCell>
        <mxCell id="7zYd6-ZZeoP9DbDOQC2W-28" style="edgeStyle=orthogonalEdgeStyle;rounded=0;orthogonalLoop=1;jettySize=auto;html=1;exitX=0;exitY=0.5;exitDx=0;exitDy=0;" edge="1" parent="WIyWlLk6GJQsqaUBKTNV-1" source="7zYd6-ZZeoP9DbDOQC2W-21" target="7zYd6-ZZeoP9DbDOQC2W-26">
          <mxGeometry relative="1" as="geometry" />
        </mxCell>
        <mxCell id="7zYd6-ZZeoP9DbDOQC2W-21" value="&lt;p class=&quot;MsoNormal&quot;&gt;脱敏后的YUV&lt;/p&gt;" style="rounded=1;whiteSpace=wrap;html=1;fontSize=12;glass=0;strokeWidth=1;shadow=0;" vertex="1" parent="WIyWlLk6GJQsqaUBKTNV-1">
          <mxGeometry x="480" y="220" width="94" height="40" as="geometry" />
        </mxCell>
        <mxCell id="7zYd6-ZZeoP9DbDOQC2W-23" value="脱敏处理算法" style="text;strokeColor=none;align=center;fillColor=none;html=1;verticalAlign=middle;whiteSpace=wrap;rounded=0;" vertex="1" parent="WIyWlLk6GJQsqaUBKTNV-1">
          <mxGeometry x="590" y="210" width="80" height="30" as="geometry" />
        </mxCell>
        <mxCell id="7zYd6-ZZeoP9DbDOQC2W-25" value="MP4" style="rounded=1;whiteSpace=wrap;html=1;fontSize=12;glass=0;strokeWidth=1;shadow=0;" vertex="1" parent="WIyWlLk6GJQsqaUBKTNV-1">
          <mxGeometry x="150" y="220" width="90" height="40" as="geometry" />
        </mxCell>
        <mxCell id="7zYd6-ZZeoP9DbDOQC2W-33" style="edgeStyle=orthogonalEdgeStyle;rounded=0;orthogonalLoop=1;jettySize=auto;html=1;exitX=0;exitY=0.5;exitDx=0;exitDy=0;" edge="1" parent="WIyWlLk6GJQsqaUBKTNV-1" source="7zYd6-ZZeoP9DbDOQC2W-26" target="7zYd6-ZZeoP9DbDOQC2W-25">
          <mxGeometry relative="1" as="geometry" />
        </mxCell>
        <mxCell id="7zYd6-ZZeoP9DbDOQC2W-26" value="编码H264/H265" style="rounded=1;whiteSpace=wrap;html=1;fontSize=12;glass=0;strokeWidth=1;shadow=0;" vertex="1" parent="WIyWlLk6GJQsqaUBKTNV-1">
          <mxGeometry x="294" y="220" width="120" height="40" as="geometry" />
        </mxCell>
        <mxCell id="7zYd6-ZZeoP9DbDOQC2W-31" value="编码器" style="text;strokeColor=none;align=center;fillColor=none;html=1;verticalAlign=middle;whiteSpace=wrap;rounded=0;" vertex="1" parent="WIyWlLk6GJQsqaUBKTNV-1">
          <mxGeometry x="420" y="210" width="60" height="30" as="geometry" />
        </mxCell>
        <mxCell id="7zYd6-ZZeoP9DbDOQC2W-32" value="封装" style="text;strokeColor=none;align=center;fillColor=none;html=1;verticalAlign=middle;whiteSpace=wrap;rounded=0;" vertex="1" parent="WIyWlLk6GJQsqaUBKTNV-1">
          <mxGeometry x="240" y="210" width="60" height="30" as="geometry" />
        </mxCell>
      </root>
    </mxGraphModel>
  </diagram>
</mxfile>
